<?xml version="1.0" standalone="no"?><!DOCTYPE svg PUBLIC "-//W3C//DTD SVG 1.1//EN" "http://www.w3.org/Graphics/SVG/1.1/DTD/svg11.dtd"><svg class="icon" width="200px" height="200.00px" viewBox="0 0 1024 1024" version="1.1" xmlns="http://www.w3.org/2000/svg"><path d="M341.333333 277.333333l115.2-115.2c8.533333-8.533333 17.066667-12.8 29.866667-17.066666v473.6c0 17.066667 12.8 29.866667 25.6 29.866666s25.6-12.8 25.6-29.866666V140.8c8.533333 4.266667 21.333333 8.533333 29.866667 17.066667L682.666667 277.333333c4.266667 4.266667 12.8 8.533333 21.333333 8.533334s12.8-4.266667 21.333333-8.533334c12.8-12.8 12.8-29.866667 0-38.4l-115.2-115.2C554.666667 68.266667 469.333333 68.266667 418.133333 119.466667L302.933333 234.666667c-12.8 12.8-12.8 29.866667 0 38.4s25.6 12.8 38.4 4.266666z" fill="#bfbfbf" /><path d="M738.133333 435.2h-72.533333c-17.066667 0-29.866667 12.8-29.866667 25.6s12.8 25.6 29.866667 25.6h72.533333c42.666667 0 76.8 34.133333 76.8 76.8V810.666667c0 42.666667-34.133333 76.8-76.8 76.8H285.866667c-42.666667 0-76.8-34.133333-76.8-76.8v-243.2c0-42.666667 34.133333-76.8 76.8-76.8h72.533333c17.066667 0 25.6-12.8 25.6-25.6s-12.8-25.6-25.6-25.6H285.866667c-72.533333 0-132.266667 59.733333-132.266667 132.266666V810.666667c0 72.533333 59.733333 132.266667 132.266667 132.266666h456.533333c72.533333 0 132.266667-59.733333 132.266667-132.266666v-243.2c0-72.533333-59.733333-132.266667-136.533334-132.266667z" fill="#bfbfbf" /></svg>